<?xml version="1.0" standalone="no"?><!DOCTYPE svg PUBLIC "-//W3C//DTD SVG 1.1//EN" "http://www.w3.org/Graphics/SVG/1.1/DTD/svg11.dtd"><svg t="1548929506470" class="icon" style="" viewBox="0 0 1024 1024" version="1.1" xmlns="http://www.w3.org/2000/svg" p-id="3427" xmlns:xlink="http://www.w3.org/1999/xlink" width="128" height="128"><defs><style type="text/css"></style></defs><path d="M929.99 382.39l0.44-0.03 0.02-0.02c-28.45-56.99-45.28-120.92-47.23-188.78-1.96-68.1 11.27-133.11 36.57-191.81l-0.42-0.74c-59.71 172.59-221.21 298.74-414.58 304.3C313.67 310.8 146.83 196.9 75.86 31.18l-0.25 0.13c27.07 55.82 43.04 118.14 44.94 184.17 1.9 66.17-10.51 129.43-34.43 186.81l0.07 0.3c-18.59 51.7-28 107.66-26.33 165.88 7.18 249.71 215.43 446.32 465.13 439.14 249.71-7.18 446.32-215.43 439.14-465.13-1.62-56.7-13.65-110.64-34.14-160.09z" fill="#F7CEA1" p-id="3428"></path><path d="M525 1007.61c139.99-4.02 263.27-71.25 343.34-173.53-85.81-97.52-212.75-157.54-352.74-153.52-139.99 4.02-263.27 71.25-343.34 173.53 85.81 97.52 212.75 157.55 352.74 153.52z" fill="#472E28" p-id="3429"></path><path d="M309.44 498.4m-185.22 0a185.22 185.22 0 1 0 370.44 0 185.22 185.22 0 1 0-370.44 0Z" fill="#826356" p-id="3430"></path><path d="M371.44 500.18m-123.22 0a123.22 123.22 0 1 0 246.44 0 123.22 123.22 0 1 0-246.44 0Z" fill="#5B4037" p-id="3431"></path><path d="M420.52 500.18m-74.14 0a74.14 74.14 0 1 0 148.28 0 74.14 74.14 0 1 0-148.28 0Z" fill="#3F2E29" p-id="3432"></path><path d="M714.56 498.4m-185.22 0a185.22 185.22 0 1 0 370.44 0 185.22 185.22 0 1 0-370.44 0Z" fill="#826356" p-id="3433"></path><path d="M652.56 500.18m-123.22 0a123.22 123.22 0 1 0 246.44 0 123.22 123.22 0 1 0-246.44 0Z" fill="#5B4037" p-id="3434"></path><path d="M603.48 500.18m-74.14 0a74.14 74.14 0 1 0 148.28 0 74.14 74.14 0 1 0-148.28 0Z" fill="#3F2E29" p-id="3435"></path><path d="M525 1007.61c139.99-4.02 263.27-71.25 343.34-173.53l-696.07 20.01c85.8 97.52 212.74 157.55 352.73 153.52z" fill="#2D1C18" p-id="3436"></path><path d="M172.26 854.09a455.069 455.069 0 0 0 93.19 80.62c70.68-50.66 156.68-81.55 250.14-84.24 95.58-2.75 185.07 24.38 259.55 72.9a454.648 454.648 0 0 0 93.19-89.3c0 0.01-332.98-112.17-696.07 20.02z" fill="#35201C" p-id="3437"></path><path d="M172.26 854.09a454.958 454.958 0 0 0 62.95 59.11c75.72-64.62 173.14-104.83 280.39-107.92 108.9-3.13 209.9 32.52 289.79 94.41 23.11-19.72 44.23-41.7 62.95-65.62-26.11-12.71-242.53-76.83-344.32-96.73-101.8-19.89-351.76 116.75-351.76 116.75z" fill="#472E28" p-id="3438"></path><path d="M681.36 1021.28l-0.18 0.01c-14.47 0.42-26.65-11.08-27.06-25.55l-1.19-41.49c-0.42-14.47 11.08-26.65 25.55-27.06l0.18-0.01c14.47-0.42 26.65 11.08 27.06 25.55l1.19 41.49c0.42 14.46-11.08 26.64-25.55 27.06z" fill="#5B4037" p-id="3439"></path><path d="M746.73 1018.48l-0.17 0.05c-13.87 4.15-28.61-3.81-32.75-17.67l-11.89-39.76c-4.15-13.87 3.81-28.61 17.67-32.75l0.17-0.05c13.87-4.15 28.61 3.81 32.75 17.68l11.89 39.76c4.15 13.85-3.8 28.59-17.67 32.74zM615.88 1022.24l0.17 0.04c14.08 3.34 28.34-5.44 31.68-19.53l9.59-40.38c3.34-14.08-5.44-28.34-19.53-31.68l-0.17-0.04c-14.08-3.34-28.34 5.44-31.68 19.53l-9.59 40.38c-3.34 14.08 5.44 28.34 19.53 31.68z" fill="#5B4037" p-id="3440"></path><path d="M369.23 1021.28l-0.18 0.01c-14.47 0.42-26.65-11.08-27.06-25.55l-1.19-41.49c-0.42-14.47 11.08-26.65 25.55-27.06l0.18-0.01c14.47-0.42 26.65 11.08 27.06 25.55l1.19 41.49c0.42 14.46-11.08 26.64-25.55 27.06z" fill="#5B4037" p-id="3441"></path><path d="M434.59 1018.48l-0.17 0.05c-13.87 4.15-28.61-3.81-32.75-17.67l-11.89-39.76c-4.15-13.87 3.81-28.61 17.67-32.75l0.17-0.05c13.87-4.15 28.61 3.81 32.75 17.68l11.89 39.76c4.16 13.85-3.8 28.59-17.67 32.74zM303.74 1022.24l0.17 0.04c14.08 3.34 28.34-5.44 31.68-19.53l9.59-40.38c3.34-14.08-5.44-28.34-19.53-31.68l-0.17-0.04c-14.08-3.34-28.34 5.44-31.68 19.53l-9.59 40.38c-3.34 14.08 5.45 28.34 19.53 31.68z" fill="#5B4037" p-id="3442"></path><path d="M853.88 835.69l-120.71-95.28-170.12-41.33-168.25 22.2-222.54 132.81c12.66 14.39 26.23 27.93 40.59 40.6 78.4-76.48 184.63-124.87 302.74-128.26 119.33-3.43 229.17 39.71 312.15 112.92 12.92-12.6 25.03-26 36.37-40.05l-10.23-3.61z" fill="#5B4037" p-id="3443"></path><path d="M191.72 874.81c79.89-89.16 194.76-146.66 323.87-150.37 129.77-3.73 248.31 47.61 333.28 132.8 6.73-7.51 13.24-15.22 19.46-23.16-85.81-97.52-212.75-157.54-352.74-153.52-139.99 4.02-263.27 71.25-343.34 173.53 6.27 7.12 12.78 14.01 19.47 20.72z" fill="#826356" p-id="3444"></path></svg>